# xmcd
#
# Track frame offsets:
#	150
#	11170
#	22840
#	33075
#	44227
#	54342
#	65897
#	77607
#	88337
#	99930
#	112785
#	124987
#	137747
#	147865
#	157367
#	167030
#	177930
#	189277
#	199777
#	209572
#
# Disc length: 2957 seconds
#
# Revision: 1
# Processed by: cddbd v1.5.2PL0 Copyright (c) Steve Scherf et al.
# Submitted via: audiograbber 1.83.01
#
DISCID=1c0b8b14
DTITLE=Johnny Tyler - Swingin' and Rockin' Western Style
DYEAR=1900
DGENRE=Country
TTITLE0=Little Rock A-r-k
TTITLE1=Gravy Train
TTITLE2=Oakie Boogie (#1)
TTITLE3=I Don't Know Where To Go, But I'm Goin'
TTITLE4=Old McDonald Boogie
TTITLE5=Two Can Play Your Game
TTITLE6=Swamp Woman Blues
TTITLE7=Devil's Hot Rod
TTITLE8=Lie To Me Baby
TTITLE9=Almost Every Time
TTITLE10=Jealous Blues
TTITLE11=Cornbread And Butter Beans
TTITLE12=I Never See My Baby Alone
TTITLE13=County Fair
TTITLE14=God's Gonna Turn Us To Dust
TTITLE15=Oakie Boogie (#2)
TTITLE16=City Of Memphis
TTITLE17=Can't Get My Foot Of The Rail
TTITLE18=I Got Mine
TTITLE19=Freight Train Boogie
EXTD=
EXTT0=
EXTT1=
EXTT2=
EXTT3=
EXTT4=
EXTT5=
EXTT6=
EXTT7=
EXTT8=
EXTT9=
EXTT10=
EXTT11=
EXTT12=
EXTT13=
EXTT14=
EXTT15=
EXTT16=
EXTT17=
EXTT18=
EXTT19=
PLAYORDER=
